<?xml version="1.0" encoding="utf-8"?>
<!-- Generator: Adobe Illustrator 19.2.1, SVG Export Plug-In . SVG Version: 6.00 Build 0)  -->
<svg version="1.1" id="Layer_1" xmlns="http://www.w3.org/2000/svg" xmlns:xlink="http://www.w3.org/1999/xlink" x="0px" y="0px"
	 viewBox="0 0 595.3 841.9" style="enable-background:new 0 0 595.3 841.9;" xml:space="preserve">
<style type="text/css">
	.st0{fill:#010101;}
	.st1{fill:none;stroke:#000000;stroke-width:18;stroke-miterlimit:10;}
</style>
<g>
	<g>
		<g>
			<path class="st0" d="M231,470.8c0-9.4,1.6-17,3.5-17s3.5,1,3.5,2.3s0.7,9.9,1.6,19.3c0,0,0,0.3,3.3,5.3s7.4,8.3,12.4,9.9
				c5.1,1.6,7.3,1.7,7.3,1.7c9.3,0.4,24.6,0.7,34,0.7h90.9c9.4,0,24.6-0.8,33.9-1.7c0,0,6.9-0.7,13.1-5.5c6.2-4.8,7-10.6,7-10.6
				c1.3-9.3,2.3-17.9,2.3-19.2s1.6-2.3,3.6-2.3s3.6,7.7,3.6,17v39.6c0,9.4-7.7,17-17,17H248c-9.4,0-17-7.7-17-17V470.8z M239,282.5
				c0-9.4,7.7-17,17-17H426c9.4,0,17,7.7,17,17v29.9c0,9.4-1.6,17-3.6,17s-5.3-7.5-7.4-16.6c0,0-0.4-1.7-6.5-6.5
				c-6.1-4.8-11.8-5.4-11.8-5.4c-9.3-1-24.6-1.8-33.9-1.8H301c-9.4,0-24.4,2-33.4,4.5c0,0-10.8,2.3-14.6,10.7s-8.4,15.2-10.4,15.2
				s-3.6-7.7-3.6-17V282.5z M273.9,370.7c0-9.4,1.6-17,3.6-17s4.7,7.6,6,16.8c0,0,0.4,2.7,6,6.1c5.6,3.5,9.8,3.8,9.8,3.8
				c9.3,0.8,24.6,1.4,34,1.4h15.5c9.4,0,24.6-0.6,34-1.4c0,0,4.6-0.4,10-3.8c5.4-3.5,5.8-6.1,5.8-6.1c1.3-9.3,3.9-16.8,5.9-16.8
				s3.5,7.7,3.5,17v52.7c0,9.4-1.6,17-3.5,17s-4.5-7.6-5.7-16.9c0,0-0.1-0.7-4.7-5.1c-4.6-4.3-11.3-4.9-11.3-4.9
				c-9.3-0.9-24.6-1.6-33.9-1.6h-15.5c-9.4,0-24.6,0.7-33.9,1.6c0,0-7.3,0.7-11.6,5.2c-4.4,4.5-4.4,4.8-4.4,4.8
				c-1.2,9.3-3.8,16.9-5.8,16.9s-3.6-7.7-3.6-17V370.7z"/>
			<path class="st1" d="M231,470.8c0-9.4,1.6-17,3.5-17s3.5,1,3.5,2.3s0.7,9.9,1.6,19.3c0,0,0,0.3,3.3,5.3s7.4,8.3,12.4,9.9
				c5.1,1.6,7.3,1.7,7.3,1.7c9.3,0.4,24.6,0.7,34,0.7h90.9c9.4,0,24.6-0.8,33.9-1.7c0,0,6.9-0.7,13.1-5.5c6.2-4.8,7-10.6,7-10.6
				c1.3-9.3,2.3-17.9,2.3-19.2s1.6-2.3,3.6-2.3s3.6,7.7,3.6,17v39.6c0,9.4-7.7,17-17,17H248c-9.4,0-17-7.7-17-17V470.8z M239,282.5
				c0-9.4,7.7-17,17-17H426c9.4,0,17,7.7,17,17v29.9c0,9.4-1.6,17-3.6,17s-5.3-7.5-7.4-16.6c0,0-0.4-1.7-6.5-6.5
				c-6.1-4.8-11.8-5.4-11.8-5.4c-9.3-1-24.6-1.8-33.9-1.8H301c-9.4,0-24.4,2-33.4,4.5c0,0-10.8,2.3-14.6,10.7s-8.4,15.2-10.4,15.2
				s-3.6-7.7-3.6-17V282.5z M273.9,370.7c0-9.4,1.6-17,3.6-17s4.7,7.6,6,16.8c0,0,0.4,2.7,6,6.1c5.6,3.5,9.8,3.8,9.8,3.8
				c9.3,0.8,24.6,1.4,34,1.4h15.5c9.4,0,24.6-0.6,34-1.4c0,0,4.6-0.4,10-3.8c5.4-3.5,5.8-6.1,5.8-6.1c1.3-9.3,3.9-16.8,5.9-16.8
				s3.5,7.7,3.5,17v52.7c0,9.4-1.6,17-3.5,17s-4.5-7.6-5.7-16.9c0,0-0.1-0.7-4.7-5.1c-4.6-4.3-11.3-4.9-11.3-4.9
				c-9.3-0.9-24.6-1.6-33.9-1.6h-15.5c-9.4,0-24.6,0.7-33.9,1.6c0,0-7.3,0.7-11.6,5.2c-4.4,4.5-4.4,4.8-4.4,4.8
				c-1.2,9.3-3.8,16.9-5.8,16.9s-3.6-7.7-3.6-17V370.7z"/>
		</g>
	</g>
</g>
</svg>
