<?xml version="1.0" encoding="utf-8"?>
<!-- Generator: Adobe Illustrator 19.2.1, SVG Export Plug-In . SVG Version: 6.00 Build 0)  -->
<svg version="1.1" id="Logo_1_" xmlns="http://www.w3.org/2000/svg" xmlns:xlink="http://www.w3.org/1999/xlink" x="0px" y="0px"
	 viewBox="0 0 560 560" style="enable-background:new 0 0 560 560;" xml:space="preserve">
<style type="text/css">
	.st0{stroke:#000000;stroke-miterlimit:10;}
	.st1{fill:#FFFFFF;}
	.st2{display:none;stroke:#000000;stroke-width:10;stroke-miterlimit:10;}
	.st3{font-family:'TimesNewRomanPSMT';}
	.st4{font-size:355.5364px;}
	.st5{fill:none;stroke:#FFFFFF;stroke-width:12;}
</style>
<g id="Logo">
	<path id="Back" class="st0" d="M494.5,278.6v0.7c-0.4,122-96.1,221-214.2,221.4h-0.2c-0.1,0-0.2,0-0.4,0
		c-118.2-0.5-213.9-99.3-214.2-221.4v-0.7c0.4-122.1,96.1-221,214.2-221.4h0.6C398.4,57.6,494.1,156.5,494.5,278.6z"/>
	<path id="Border" class="st1" d="M280,12.5C130.2,12.5,12.5,134.2,12.5,280S130.2,547.5,280,547.5S547.5,425.8,547.5,280
		C547.4,134.3,429.7,12.5,280,12.5z M280,55c118.5,0,218.2,98.9,218.2,225.1s-99.7,225-218.3,225c-118.4,0-218.2-98.9-218.2-225
		C61.7,153.8,161.4,55,280,55z"/>
	<path id="Rim" class="st2" d="M280,5C125.5,5,5,130.7,5,280s120.5,275,275,275s275-125.7,275-275S434.4,5,280,5z M280,12.8
		c148.9,0,266.1,121.5,266.1,267.2S428.9,547.1,280,547.1S13.9,425.6,13.9,280S131,12.8,280,12.8z M280,53.9
		c-118.7,0-218.4,99.3-218.4,226S161.3,505.8,280,505.8s218.4-99.2,218.4-225.9C498.3,153.2,398.6,53.9,280,53.9z M280,61.7
		c113,0,209.5,95,209.5,218.1S393,498,280,498S70.5,403,70.5,280S167,61.7,280,61.7z"/>
	<text transform="matrix(0.9829 0 0 1 167.638 404.2823)" class="st1 st3 st4">Ξ</text>
	<text transform="matrix(0.9829 0 0 1 167.638 404.2823)" class="st5 st3 st4">Ξ</text>
</g>
</svg>
