<?xml version="1.0" encoding="utf-8"?>
<!-- Generator: Adobe Illustrator 19.2.1, SVG Export Plug-In . SVG Version: 6.00 Build 0)  -->
<svg version="1.1" id="Logo_1_" xmlns="http://www.w3.org/2000/svg" xmlns:xlink="http://www.w3.org/1999/xlink" x="0px" y="0px"
	 viewBox="0 0 560 560" style="enable-background:new 0 0 560 560;" xml:space="preserve">
<style type="text/css">
	.st0{display:none;}
	.st1{stroke:#000000;stroke-miterlimit:10;}
	.st2{fill:#FFFFFF;}
	.st3{stroke:#000000;stroke-width:10;stroke-miterlimit:10;}
	.st4{display:inline;}
	.st5{font-family:'TimesNewRomanPSMT';}
	.st6{font-size:395.5364px;}
	.st7{display:inline;fill:none;stroke:#000000;stroke-width:12;}
	.st8{fill:none;stroke:#000000;stroke-width:12;}
</style>
<g id="Logo" class="st0">
	<path id="Back" class="st1" d="M494.5,278.6v0.7c-0.4,122-96.1,221-214.2,221.4h-0.2c-0.1,0-0.2,0-0.4,0
		c-118.2-0.5-213.9-99.3-214.2-221.4v-0.7c0.4-122.1,96.1-221,214.2-221.4h0.6C398.4,57.6,494.1,156.5,494.5,278.6z"/>
	<path id="Border" class="st2" d="M280,12.5C130.2,12.5,12.5,134.2,12.5,280S130.2,547.5,280,547.5S547.5,425.8,547.5,280
		C547.4,134.3,429.7,12.5,280,12.5z M280,55c118.5,0,218.2,98.9,218.2,225.1s-99.7,225-218.3,225c-118.4,0-218.2-98.9-218.2-225
		C61.7,153.8,161.4,55,280,55z"/>
	<path id="Rim" class="st3" d="M280,5C125.5,5,5,130.7,5,280s120.5,275,275,275s275-125.7,275-275S434.4,5,280,5z M280,12.8
		c148.9,0,266.1,121.5,266.1,267.2S428.9,547.1,280,547.1S13.9,425.6,13.9,280S131,12.8,280,12.8z M280,53.9
		c-118.7,0-218.4,99.3-218.4,226S161.3,505.8,280,505.8s218.4-99.2,218.4-225.9C498.3,153.2,398.6,53.9,280,53.9z M280,61.7
		c113,0,209.5,95,209.5,218.1S393,498,280,498S70.5,403,70.5,280S167,61.7,280,61.7z"/>
	<text transform="matrix(0.9829 0 0 1 155 408.7128)" class="st4 st5 st6">Ξ</text>
	<text transform="matrix(0.9829 0 0 1 155 408.7128)" class="st7 st5 st6">Ξ</text>
</g>
<g>
	<path d="M177.5,156.4c0-5.5,4.5-10,10-10h183c5.5,0,10,4.5,10,10v44c0,5.5-3.1,6.7-6.8,2.6l-15.9-17.3c-3.7-4-11.3-7.4-16.8-7.4
		H226c-5.5,0-13.5,2.9-17.7,6.4L185.2,204c-4.2,3.5-7.7,1.9-7.7-3.6V156.4z"/>
	<path class="st8" d="M177.5,156.4c0-5.5,4.5-10,10-10h183c5.5,0,10,4.5,10,10v44c0,5.5-3.1,6.7-6.8,2.6l-15.9-17.3
		c-3.7-4-11.3-7.4-16.8-7.4H226c-5.5,0-13.5,2.9-17.7,6.4L185.2,204c-4.2,3.5-7.7,1.9-7.7-3.6V156.4z"/>
</g>
<g>
	<path d="M219,242c-4.1-3.6-7.5-2.1-7.5,3.4v65c0,5.5,3.5,7.2,7.9,3.8l18.7-14.7c4.3-3.4,12.4-6.2,17.9-6.2h48
		c5.5,0,13.5,2.8,17.8,6.3l17.9,14.4c4.3,3.5,7.8,1.8,7.8-3.7v-65c0-5.5-3.4-7.1-7.6-3.5L322,257.2c-4.2,3.6-12.1,6.5-17.6,6.5H254
		c-5.5,0-13.4-3-17.5-6.6L219,242z"/>
	<path class="st8" d="M219,242c-4.1-3.6-7.5-2.1-7.5,3.4v65c0,5.5,3.5,7.2,7.9,3.8l18.7-14.7c4.3-3.4,12.4-6.2,17.9-6.2h48
		c5.5,0,13.5,2.8,17.8,6.3l17.9,14.4c4.3,3.5,7.8,1.8,7.8-3.7v-65c0-5.5-3.4-7.1-7.6-3.5L322,257.2c-4.2,3.6-12.1,6.5-17.6,6.5H254
		c-5.5,0-13.4-3-17.5-6.6L219,242z"/>
</g>
<g>
	<path d="M176.7,344.3c-4.2-3.5-7.7-1.9-7.7,3.6v50.8c0,5.5,4.5,10,10,10h199c5.5,0,10-4.5,10-10v-50.8c0-5.5-2.5-6.2-5.4-1.6
		l-12.1,18.6c-3,4.6-9.9,8.4-15.4,8.4H221.5c-5.5,0-13.5-2.9-17.7-6.4L176.7,344.3z"/>
	<path class="st8" d="M176.7,344.3c-4.2-3.5-7.7-1.9-7.7,3.6v50.8c0,5.5,4.5,10,10,10h199c5.5,0,10-4.5,10-10v-50.8
		c0-5.5-2.5-6.2-5.4-1.6l-12.1,18.6c-3,4.6-9.9,8.4-15.4,8.4H221.5c-5.5,0-13.5-2.9-17.7-6.4L176.7,344.3z"/>
</g>
</svg>
